# xmcd
#
# Track frame offsets: 
#        150
#        15012
#        28811
#        45145
#        59542
#        76794
#        94206
#        111311
#        129539
#        148322
#        168225
#        182269
#        194099
#
# Disc length: 2812 seconds
#
# Revision: 1
# Processed by: cddbd v1.5.2PL0 Copyright (c) Steve Scherf et al.
# Submitted via: ExactAudioCopy v0.95a5
#
DISCID=a50afa0d
DTITLE=Chaka Khan - Classikhan
DYEAR=2004
DGENRE=Jazz
TTITLE0=Hey Big Spender
TTITLE1=Hazels Hips
TTITLE2=The Best Is Yet To Come
TTITLE3=Crazy
TTITLE4=I'm In The Mood For Love
TTITLE5=Is That All There Is?
TTITLE6=Stormy Weather
TTITLE7=Round Midnight
TTITLE8=Teach Me Tonight
TTITLE9=To Sir With Love
TTITLE10=Diamonds Are Forever
TTITLE11=Goldfinger
TTITLE12=I Believe
EXTD=
EXTT0=
EXTT1=
EXTT2=
EXTT3=
EXTT4=
EXTT5=
EXTT6=
EXTT7=
EXTT8=
EXTT9=
EXTT10=
EXTT11=
EXTT12=
PLAYORDER=
